<?xml version="1.0" standalone="no"?>
<!DOCTYPE svg PUBLIC "-//W3C//DTD SVG 20010904//EN"
 "http://www.w3.org/TR/2001/REC-SVG-20010904/DTD/svg10.dtd">
<svg version="1.0" xmlns="http://www.w3.org/2000/svg"
 width="400.000000pt" height="400.000000pt" viewBox="0 0 400.000000 400.000000"
 preserveAspectRatio="xMidYMid meet">

<g transform="translate(0.000000,400.000000) scale(0.100000,-0.100000)"
fill="#000000" stroke="none">
<path d="M2543 3222 c-165 -109 -266 -162 -280 -148 -3 3 -11 31 -17 62 l-11
57 -33 -28 c-17 -14 -39 -39 -48 -54 l-16 -27 -56 58 c-30 32 -59 58 -64 58
-6 0 -7 -17 -3 -40 8 -49 -1 -51 -58 -11 -23 15 -52 33 -64 40 -22 11 -22 10
-16 -20 3 -18 2 -30 -3 -28 -5 2 -34 17 -64 33 -49 26 -110 49 -110 42 0 -2 4
-16 9 -32 5 -16 12 -42 16 -58 l6 -28 -86 46 c-47 25 -134 77 -194 116 -59 38
-114 70 -123 70 -67 0 -61 -138 17 -365 l35 -100 -23 -14 c-32 -21 -147 -138
-147 -150 0 -6 19 -11 42 -11 l41 0 -60 -63 c-33 -34 -68 -77 -77 -96 l-18
-34 33 7 c19 4 49 10 68 13 l33 6 -35 -49 c-39 -56 -77 -151 -77 -194 0 -40
-15 -45 -30 -10 -7 17 -16 33 -21 35 -4 3 -40 -54 -80 -126 -51 -93 -74 -127
-80 -118 -5 8 -46 83 -91 167 -46 83 -85 152 -88 152 -3 0 -67 -116 -143 -257
-137 -254 -141 -263 -104 -276 5 -1 -24 -57 -63 -124 -40 -67 -69 -127 -65
-132 3 -6 17 -11 31 -11 l24 0 -30 -60 -30 -60 -106 0 -105 0 6 -32 c3 -18 16
-105 30 -192 14 -88 27 -162 30 -164 2 -2 20 6 39 18 l36 22 0 -134 c0 -124
-2 -140 -30 -216 -16 -46 -30 -89 -30 -97 0 -13 31 -15 200 -15 193 0 200 1
200 20 0 20 7 20 1389 20 1257 0 1393 -2 1432 -16 67 -25 165 -23 216 4 77 40
123 129 123 237 0 63 -19 121 -60 182 l-31 46 46 95 46 95 -38 40 c-44 45
-105 82 -149 91 -23 5 -35 17 -52 52 -28 57 -28 60 9 68 l31 6 -20 32 c-11 18
-45 76 -76 128 -49 84 -53 96 -38 104 9 5 19 10 21 12 4 4 -272 514 -279 514
-3 0 -45 -75 -93 -165 -49 -91 -90 -165 -92 -165 -2 0 -31 51 -64 113 -33 61
-66 121 -74 131 -14 19 -15 18 -35 -20 l-20 -39 -7 30 c-20 90 -59 167 -118
233 -25 27 -12 28 55 2 29 -11 54 -20 56 -20 2 0 0 15 -3 33 -9 41 -47 112
-82 156 l-28 34 30 -7 c17 -4 38 -9 49 -13 17 -5 16 -1 -5 38 -13 24 -45 65
-70 91 l-46 46 45 133 c65 194 71 349 13 349 -11 0 -99 -53 -198 -118z m-1137
-9 c80 -61 201 -130 285 -163 43 -16 83 -30 89 -30 5 0 10 20 10 45 0 27 5 45
12 45 6 0 35 -24 64 -53 55 -54 64 -55 64 -1 0 34 23 30 54 -10 23 -30 26 -44
26 -111 0 -118 -25 -158 -115 -180 l-30 -7 34 -28 34 -29 -36 -6 c-20 -4 -55
-5 -76 -3 l-40 3 25 -26 c15 -15 53 -42 86 -59 67 -36 91 -71 66 -97 -15 -14
-14 -19 8 -61 30 -56 32 -77 5 -62 -25 13 -88 13 -96 0 -3 -5 1 -10 10 -10 54
0 105 -68 105 -140 0 -28 -2 -29 -30 -23 -55 11 -97 -63 -55 -97 8 -7 15 -16
15 -21 0 -18 -27 -8 -55 21 -23 24 -30 41 -33 88 -5 72 12 97 62 87 29 -6 30
-5 12 10 -48 37 -110 2 -127 -73 -10 -48 6 -118 58 -247 27 -68 37 -108 40
-165 2 -41 6 -85 9 -97 6 -31 58 -55 122 -57 79 -2 97 23 105 140 5 76 32 192
43 182 1 -2 -3 -68 -11 -147 -15 -159 -24 -182 -86 -213 -72 -38 -166 -11
-194 55 -7 17 -18 72 -24 120 -7 62 -20 108 -42 155 -38 78 -49 70 -19 -14 24
-71 27 -119 5 -110 -10 3 -15 -1 -15 -12 1 -20 25 -136 35 -170 8 -23 7 -23
-80 -20 l-88 3 -35 63 c-32 59 -33 62 -13 62 12 0 21 3 21 8 0 4 -20 41 -45
82 -24 41 -40 77 -35 78 18 6 11 23 -72 175 -93 172 -78 169 -156 25 l-47 -88
-23 47 c-21 40 -23 55 -17 106 15 133 76 274 151 348 24 24 44 47 44 52 0 4
-27 7 -60 7 -33 0 -60 4 -60 9 0 12 70 75 122 108 l43 28 -57 3 c-32 2 -58 7
-58 12 0 21 81 73 150 95 60 19 71 25 53 30 -37 12 -27 22 42 45 36 12 65 25
65 30 0 5 -29 18 -65 30 -65 22 -78 33 -50 44 8 3 15 10 15 15 0 11 -85 71
-101 71 -10 0 -11 -88 0 -172 5 -42 4 -58 -5 -58 -16 0 -37 55 -74 192 -30
112 -38 178 -21 178 4 0 30 -17 57 -37z m858 -518 c3 -8 13 -15 23 -15 10 0
-15 -18 -56 -40 -40 -21 -85 -49 -98 -62 l-25 -23 7 25 c4 14 19 47 32 73 21
42 26 47 36 33 11 -14 15 -13 37 4 30 24 36 24 44 5z m26 -148 c0 -7 -7 -23
-16 -35 -18 -26 -74 -31 -74 -7 0 9 9 15 25 15 14 0 29 8 35 20 12 22 30 27
30 7z m-1476 -462 c26 -79 49 -151 52 -159 4 -10 -2 -17 -20 -22 -14 -3 -26
-9 -26 -13 0 -4 18 -61 40 -126 22 -65 40 -123 40 -127 0 -4 -40 -8 -89 -8
l-89 0 -28 -82 -29 -83 -102 -3 c-57 -1 -103 -1 -103 2 0 2 18 36 40 75 22 39
40 75 40 80 0 5 -11 11 -24 13 -23 3 -22 7 50 131 41 70 72 132 69 137 -3 6
-14 10 -25 10 -14 0 -2 30 69 160 47 88 87 160 88 160 1 0 22 -65 47 -145z
m2490 -47 l45 -127 -24 -8 -25 -8 59 -127 c51 -110 57 -128 41 -128 -33 0 -32
-17 5 -98 l36 -79 -31 -32 c-23 -22 -41 -31 -65 -31 -33 0 -33 0 -77 113 l-44
112 -127 3 c-70 1 -127 4 -127 7 0 2 31 61 70 132 38 70 70 131 70 136 0 4 -9
7 -20 7 -11 0 -20 5 -20 11 0 6 37 78 82 162 l81 151 13 -35 c7 -19 33 -91 58
-161z m-2124 -85 c0 -2 -9 -3 -20 -3 -11 0 -20 -1 -20 -3 0 -4 56 -167 65
-189 6 -15 2 -18 -20 -18 -26 0 -27 -2 -21 -39 3 -22 9 -46 12 -55 5 -12 0
-16 -18 -16 -19 0 -35 19 -86 105 -61 102 -68 125 -36 125 18 0 18 -1 -20 71
l-29 55 48 90 c27 49 53 95 59 103 8 10 20 -16 48 -105 21 -66 38 -120 38
-121z m1743 119 c23 -108 24 -112 6 -117 -22 -7 -23 -28 -5 -137 l12 -78 -28
0 c-26 0 -28 -3 -28 -39 0 -70 -2 -71 -101 -71 -49 0 -89 2 -89 5 0 3 11 28
25 55 l25 50 -24 6 c-24 6 -24 6 34 102 54 90 57 98 40 107 -17 9 -14 18 43
122 34 62 62 111 64 110 1 -2 13 -53 26 -115z m-1500 -120 c-18 -5 -16 -21 12
-96 30 -80 30 -76 5 -76 -11 0 -20 -6 -20 -12 1 -14 17 -91 26 -120 4 -15 -1
-18 -28 -18 -29 0 -37 5 -50 33 -16 33 -16 34 7 43 24 9 24 9 -32 103 -49 83
-54 95 -39 103 16 9 16 12 -2 42 l-19 33 45 83 45 83 32 -99 c23 -75 28 -100
18 -102z m1231 36 c5 -23 2 -28 -15 -28 -15 0 -19 -5 -15 -17 2 -10 8 -48 12
-85 6 -64 5 -68 -14 -68 -18 0 -21 -8 -28 -80 l-7 -80 -84 0 -85 0 41 74 c38
69 39 74 21 82 -18 8 -16 14 25 82 48 77 52 88 33 94 -7 3 7 38 38 96 l49 92
12 -68 c7 -37 15 -79 17 -94z m-734 62 c0 -6 -7 -22 -16 -35 -9 -14 -14 -32
-10 -40 3 -8 1 -15 -4 -15 -14 0 -22 38 -15 70 5 21 13 30 26 30 10 0 19 -5
19 -10z m196 -24 c3 -19 1 -43 -5 -53 -10 -17 -10 -17 -11 3 0 11 -7 29 -15
40 -20 27 -19 44 5 44 14 0 21 -9 26 -34z m-56 -10 c0 -12 -5 -16 -15 -13 -8
4 -17 2 -21 -4 -4 -7 -10 -6 -19 1 -10 8 -15 8 -20 0 -5 -8 -11 -8 -17 -2 -6
6 -17 8 -24 5 -9 -3 -14 2 -14 13 0 17 8 19 65 19 57 0 65 -2 65 -19z m31
-292 c-7 -16 -17 -24 -26 -20 -8 3 -18 -2 -23 -10 -5 -10 -24 -16 -48 -17 -35
-2 -39 1 -42 23 -2 14 1 20 5 14 4 -6 22 -10 40 -9 35 1 82 43 84 73 0 13 3
12 11 -6 8 -16 8 -29 -1 -48z m-151 -7 c0 -12 -6 -17 -17 -15 -13 2 -19 14
-21 43 l-2 40 20 -25 c11 -14 20 -33 20 -43z m-913 -220 c10 24 21 43 24 43 4
0 12 -27 18 -61 7 -34 15 -67 18 -75 3 -9 -2 -14 -16 -14 -17 0 -21 6 -21 30
0 39 -12 38 -29 -2 l-13 -33 -15 35 -16 35 -9 -32 c-10 -38 -44 -48 -35 -10 3
12 11 49 18 82 l13 59 22 -49 22 -50 19 42z m233 -27 c0 -64 -3 -80 -15 -80
-12 0 -15 16 -15 80 0 64 3 80 15 80 12 0 15 -16 15 -80z m240 38 c0 35 3 42
20 42 18 0 20 -7 20 -82 l0 -82 -45 44 -45 44 0 -42 c0 -35 -3 -42 -20 -42
-18 0 -20 7 -20 82 l0 82 45 -44 45 -44 0 42z m280 0 c0 35 3 42 20 42 18 0
20 -7 20 -80 0 -44 -4 -80 -8 -80 -5 0 -23 18 -41 40 -17 22 -36 40 -41 40 -6
0 -10 -18 -10 -40 0 -29 -4 -40 -15 -40 -12 0 -15 16 -15 82 l0 82 45 -44 45
-44 0 42z m270 27 c0 -9 -9 -15 -25 -15 -16 0 -25 -6 -25 -15 0 -8 9 -15 20
-15 12 0 20 -7 20 -16 0 -9 -9 -18 -20 -21 -29 -8 -25 -33 5 -33 16 0 25 -6
25 -15 0 -11 -11 -15 -40 -15 l-40 0 0 80 0 80 40 0 c29 0 40 -4 40 -15z m233
9 c12 -12 -6 -34 -23 -29 -32 10 -32 -14 0 -30 25 -13 30 -22 30 -51 0 -27 -5
-36 -24 -44 -13 -5 -34 -6 -45 -3 -29 7 -23 38 6 38 33 0 33 18 1 33 -30 14
-39 57 -16 80 12 12 60 17 71 6z m277 -14 c26 -26 27 -89 2 -121 -13 -15 -30
-22 -52 -22 -43 0 -70 32 -70 84 0 48 28 79 70 79 17 0 39 -9 50 -20z m260 0
c0 -11 -7 -20 -15 -20 -12 0 -15 -13 -15 -60 0 -53 -2 -60 -20 -60 -18 0 -20
7 -20 60 0 47 -3 60 -15 60 -8 0 -15 9 -15 20 0 17 7 20 50 20 43 0 50 -3 50
-20z m236 -63 c26 -60 29 -73 16 -76 -8 -1 -19 4 -24 13 -11 20 -57 21 -64 1
-6 -14 -34 -22 -34 -10 0 14 65 154 69 150 2 -3 19 -38 37 -78z m-2457 -139
c-1 -18 -4 -46 -8 -62 l-6 -29 -31 27 c-18 14 -37 26 -43 26 -14 0 -10 -489 3
-527 8 -22 7 -23 -59 -23 l-67 0 7 28 c5 15 10 138 12 275 4 230 3 247 -13
247 -10 0 -30 -12 -46 -27 -15 -14 -30 -25 -32 -22 -2 2 -7 30 -11 62 l-7 57
151 0 151 0 -1 -32z m3034 19 c57 -24 62 -39 32 -96 -26 -52 -45 -66 -45 -33
0 59 -75 84 -94 31 -15 -43 1 -77 73 -153 84 -89 104 -125 104 -191 0 -139
-131 -208 -236 -125 l-26 21 26 54 c29 59 38 61 48 14 8 -35 40 -52 70 -36 27
14 35 27 35 60 0 39 -13 61 -86 145 -79 91 -97 125 -98 182 0 108 95 169 197
127z m-2893 -76 c-11 -22 -13 -435 -1 -464 15 -40 30 12 62 221 26 171 31 217
21 233 -7 10 -12 21 -12 24 0 3 26 5 58 5 l58 0 18 -112 c10 -62 21 -117 24
-123 4 -5 15 44 27 110 l20 120 52 3 51 3 -5 -38 c-6 -53 54 -433 72 -453 24
-26 18 -30 -44 -30 l-58 0 -6 48 c-4 26 -10 84 -13 129 -4 45 -10 80 -14 78
-4 -2 -22 -62 -40 -132 -18 -70 -36 -132 -40 -136 -4 -5 -22 52 -40 125 -18
73 -36 136 -39 141 -4 4 -13 -50 -20 -120 -7 -70 -14 -129 -16 -131 -2 -2 -56
-1 -120 3 -112 7 -115 8 -108 29 11 29 10 447 -1 469 -7 15 -2 17 58 17 63 0
66 -1 56 -19z m666 -23 c29 -32 34 -45 34 -86 0 -35 -7 -59 -23 -84 l-24 -34
29 -34 c51 -62 33 -170 -36 -216 -18 -11 -50 -17 -98 -18 l-73 -1 -6 225 c-5
185 -9 231 -23 259 l-18 33 102 -4 102 -3 34 -37z m304 5 c0 -21 -4 -45 -10
-53 -8 -12 -11 -12 -28 3 -11 10 -35 17 -60 17 -41 0 -42 -1 -42 -32 0 -18 3
-50 6 -70 l7 -38 53 0 c30 0 54 -2 54 -5 0 -2 -8 -20 -17 -40 -17 -37 -26 -39
-76 -20 -11 5 -16 -6 -20 -47 -4 -29 -7 -68 -7 -85 0 -32 1 -33 43 -33 26 0
51 8 67 20 14 11 28 20 33 20 4 0 7 -25 7 -55 l0 -55 -126 0 -126 0 8 23 c4
12 9 108 11 213 3 157 1 199 -11 229 -9 21 -16 39 -16 41 0 2 56 4 125 4 l125
0 0 -37z m236 22 c68 -28 85 -148 30 -220 l-26 -33 60 -122 c33 -66 60 -123
60 -126 0 -2 -30 -4 -66 -4 l-66 0 6 28 c4 20 -7 50 -39 112 l-45 85 3 -90 c2
-49 7 -100 12 -112 7 -22 5 -23 -55 -23 l-62 0 7 28 c4 15 6 116 5 224 -1 148
-5 207 -16 233 l-14 35 85 0 c53 0 99 -6 121 -15z m195 -105 c23 -164 23 -163
43 -80 28 111 31 113 57 29 13 -41 26 -78 30 -82 3 -5 9 27 13 70 4 43 10 102
13 131 l6 52 60 0 c57 0 59 -1 44 -17 -9 -11 -34 -112 -61 -253 -26 -129 -50
-244 -55 -255 -6 -16 -12 -6 -31 50 -47 142 -43 140 -80 31 -19 -53 -36 -93
-40 -89 -4 5 -28 116 -55 248 -26 132 -54 247 -62 256 -22 26 -15 30 44 27
l58 -3 16 -115z m448 90 c48 -49 73 -129 75 -240 1 -109 -17 -170 -64 -215
-56 -53 -138 -33 -185 46 -17 29 -20 52 -20 164 0 116 3 135 24 178 47 96 114
122 170 67z m211 11 c-6 -12 -10 -101 -10 -220 0 -227 0 -225 73 -176 l37 26
0 -61 0 -60 -109 0 -110 0 10 32 c5 18 9 122 9 231 0 165 -3 202 -16 222 l-16
25 71 0 c68 0 71 -1 61 -19z m169 -43 c6 -35 16 -97 23 -138 l12 -75 18 105
c9 58 20 120 23 138 l6 32 176 0 175 0 -7 -47 c-8 -58 -10 -60 -33 -40 -11 10
-35 17 -60 17 l-42 0 0 -70 0 -70 59 0 59 0 -16 -41 c-16 -42 -13 -41 -79 -23
-23 6 -23 5 -23 -80 l0 -86 38 0 c24 0 51 9 75 25 l37 26 0 -61 0 -60 -130 0
-130 0 10 26 c13 33 13 424 0 444 -7 11 -12 12 -17 3 -5 -6 -37 -122 -73 -257
-35 -135 -67 -243 -71 -238 -3 4 -34 115 -68 247 -34 132 -69 250 -77 262 -14
23 -14 23 45 23 l59 0 11 -62z"/>
<path d="M1627 2643 c3 -10 12 -27 20 -38 7 -11 13 -30 13 -43 0 -12 6 -38 14
-57 17 -41 66 -59 121 -44 25 7 43 6 70 -5 84 -36 8 49 -104 115 -47 28 -98
60 -113 71 -26 18 -27 18 -21 1z m98 -103 c4 -14 15 -20 37 -20 37 0 34 -24
-4 -28 -29 -4 -58 21 -58 49 0 25 17 25 25 -1z"/>
<path d="M2486 1504 c-9 -8 -16 -22 -16 -30 0 -24 19 -54 35 -54 19 0 45 28
45 50 0 19 -25 50 -40 50 -5 0 -16 -7 -24 -16z"/>
<path d="M3006 1465 c-3 -9 0 -15 9 -15 16 0 20 16 6 24 -5 3 -11 -1 -15 -9z"/>
<path d="M1300 1145 c0 -69 8 -78 45 -51 38 28 18 116 -26 116 -17 0 -19 -8
-19 -65z"/>
<path d="M1300 929 c0 -70 2 -79 18 -79 28 0 54 35 55 74 1 38 -21 71 -54 79
-18 5 -19 -1 -19 -74z"/>
<path d="M1866 1173 c-11 -70 -8 -93 13 -93 40 0 69 88 39 118 -24 24 -45 14
-52 -25z"/>
<path d="M2494 1158 c-38 -72 -27 -244 18 -284 18 -17 20 -17 38 2 41 41 50
198 15 280 -18 45 -48 46 -71 2z"/>
</g>
</svg>
