<?xml version="1.0" standalone="no"?>
<!DOCTYPE svg PUBLIC "-//W3C//DTD SVG 20010904//EN"
 "http://www.w3.org/TR/2001/REC-SVG-20010904/DTD/svg10.dtd">
<svg version="1.0" xmlns="http://www.w3.org/2000/svg"
 width="600.000000pt" height="448.000000pt" viewBox="0 0 600.000000 448.000000"
 preserveAspectRatio="xMidYMid meet">

<g transform="translate(0.000000,448.000000) scale(0.100000,-0.100000)"
fill="#000000" stroke="none">
<path d="M2931 4396 l-74 -75 -20 40 c-51 103 -178 126 -256 48 -26 -25 -31
-38 -31 -78 0 -55 20 -88 66 -107 49 -20 108 0 112 39 3 27 3 28 -48 25 -39
-2 -55 1 -63 13 -15 24 -1 64 28 77 60 28 114 5 139 -59 20 -49 20 -72 1 -109
-37 -71 -154 -85 -266 -32 -96 45 -183 59 -271 44 -85 -15 -189 -67 -253 -126
-43 -41 -48 -42 -192 -70 -582 -113 -1091 -282 -1664 -553 l-119 -56 0 -124
c0 -87 4 -134 15 -160 20 -48 20 -225 0 -283 -19 -53 -19 -137 0 -170 11 -19
14 -73 15 -241 0 -213 0 -216 27 -270 33 -65 122 -158 183 -189 25 -12 78 -58
118 -101 57 -61 90 -87 145 -114 40 -19 66 -35 60 -35 -23 0 -14 -20 35 -72
61 -66 146 -121 221 -144 45 -13 58 -21 50 -30 -24 -30 157 -141 282 -173 l71
-18 39 -103 c130 -344 378 -653 694 -865 416 -279 930 -378 1415 -273 486 104
921 410 1182 830 59 95 136 253 170 347 l23 65 56 12 c69 16 154 53 216 95 73
49 94 70 83 84 -7 9 2 15 33 24 75 23 160 75 226 139 49 48 61 65 52 75 -8 11
1 18 43 36 57 23 171 120 195 164 8 14 43 43 79 64 111 65 189 167 227 296 14
48 16 90 12 245 -3 103 -6 295 -8 427 -4 267 -12 303 -83 410 -86 129 -196
201 -466 308 -376 148 -796 270 -1212 352 l-167 32 -53 48 c-63 57 -153 102
-237 117 -80 15 -174 1 -270 -42 -91 -39 -125 -45 -180 -30 -63 17 -101 58
-101 110 0 106 100 171 165 105 28 -27 30 -37 15 -66 -12 -21 -41 -25 -70 -9
-14 7 -23 6 -35 -6 -22 -22 -15 -36 28 -57 105 -52 196 86 117 177 -42 47
-111 64 -166 41 -49 -20 -71 -41 -95 -87 l-19 -37 -73 75 -72 75 -74 -75z
m-511 -247 c66 -17 66 -26 -1 -33 -131 -14 -314 -37 -326 -41 -7 -2 -13 -1
-13 4 0 4 26 22 59 40 88 47 178 57 281 30z m1336 10 c57 -10 187 -70 167 -76
-6 -2 -91 5 -189 17 -99 11 -186 20 -193 20 -34 0 9 21 70 34 81 18 75 18 145
5z m-976 -208 c0 -5 14 -22 30 -38 17 -15 30 -31 30 -35 0 -5 -35 -8 -77 -8
-177 0 -565 -40 -832 -86 -388 -66 -886 -203 -1193 -329 -15 -6 -18 -2 -18 23
0 69 58 99 365 192 434 131 939 234 1325 269 63 6 131 13 150 14 79 8 220 6
220 -2z m859 -16 c394 -44 807 -129 1226 -251 277 -81 429 -139 460 -176 24
-29 34 -78 16 -78 -5 0 -49 15 -98 34 -392 150 -924 286 -1343 345 -246 34
-536 61 -667 61 -35 0 -63 3 -63 6 0 3 15 23 33 45 l32 41 135 -6 c74 -4 195
-13 269 -21z m-423 -173 c67 -34 88 -79 92 -194 5 -115 1 -136 -34 -178 l-27
-31 21 -22 c35 -37 42 -73 42 -206 0 -115 2 -130 20 -146 13 -12 20 -31 20
-57 0 -35 -2 -38 -27 -38 -50 1 -115 18 -124 31 -5 8 -9 82 -9 166 0 202 -3
208 -105 215 l-50 3 -5 -200 -5 -200 -60 0 -60 0 -3 201 c-2 164 -5 204 -17
214 -19 16 -19 54 0 70 12 10 15 40 15 152 0 125 -2 143 -20 165 -20 26 -26
63 -12 77 4 4 75 6 157 4 130 -3 156 -7 191 -26z m-506 -4 c71 -36 84 -70 89
-222 3 -109 6 -131 22 -147 24 -24 24 -44 -1 -69 -18 -18 -20 -33 -20 -142 0
-150 -11 -192 -59 -238 -46 -44 -97 -60 -187 -60 -81 0 -127 20 -161 70 -21
30 -23 44 -23 179 0 135 -1 147 -20 159 -11 7 -20 23 -20 37 0 14 9 30 20 37
18 12 20 24 20 141 0 141 9 174 57 219 63 60 201 77 283 36z m868 3 c19 -2 14
-59 -8 -81 -19 -19 -20 -33 -20 -359 l0 -339 23 -6 c12 -3 41 -6 65 -6 l42 0
0 109 c0 138 9 151 89 135 l31 -6 0 -173 c0 -112 -4 -175 -10 -177 -11 -3
-262 18 -327 28 l-33 5 0 202 c0 191 -1 203 -20 215 -11 7 -20 23 -20 37 0 14
9 30 20 37 18 12 20 24 20 149 0 122 -2 138 -19 153 -20 18 -37 69 -28 83 3 5
45 5 94 1 48 -3 94 -7 101 -7z m474 -62 c100 -17 189 -35 195 -41 9 -7 13 -49
13 -145 l0 -135 -27 6 c-79 19 -80 20 -85 107 -3 44 -9 84 -14 89 -5 4 -35 11
-66 15 l-58 7 0 -135 c0 -152 -7 -140 85 -153 88 -12 95 -17 95 -70 l0 -47
-45 7 c-25 3 -65 9 -90 12 l-45 7 0 -151 0 -150 62 -11 c34 -6 64 -8 67 -6 3
3 6 37 8 76 1 38 5 74 8 79 7 11 48 13 83 4 21 -6 22 -10 22 -140 0 -73 -4
-135 -9 -138 -4 -3 -73 6 -152 19 -79 14 -159 28 -176 31 l-33 5 0 203 c0 190
-1 204 -20 221 -11 10 -20 26 -20 36 0 11 9 24 20 31 18 12 20 24 20 146 0
119 -2 137 -20 159 -20 26 -28 93 -11 93 5 0 92 -14 193 -31z m-2042 -20 c0
-17 -10 -44 -21 -61 -28 -39 -59 -279 -41 -309 18 -28 14 -66 -6 -81 -15 -11
-23 -48 -42 -210 -15 -130 -27 -202 -36 -209 -8 -6 -48 -18 -90 -26 -62 -11
-79 -12 -85 -2 -4 7 -17 65 -29 128 -52 289 -78 425 -79 416 -11 -96 -101
-588 -110 -598 -20 -25 -180 -59 -181 -39 -1 4 -11 87 -24 185 -19 152 -25
180 -44 197 -26 25 -26 25 -6 59 15 25 15 38 -1 157 -12 98 -21 134 -36 150
-10 11 -19 34 -19 51 0 28 4 31 60 46 33 10 66 17 73 17 9 0 23 -86 51 -329
21 -181 41 -343 45 -361 4 -22 17 41 45 222 59 381 82 499 103 519 24 25 74
34 95 17 15 -12 79 -329 119 -595 7 -46 16 -83 19 -83 4 0 10 26 13 58 40 361
79 678 85 683 6 6 91 24 130 28 7 1 12 -11 12 -30z m2547 -84 c44 -10 79 -25
91 -38 15 -17 27 -67 50 -204 25 -143 36 -187 52 -203 23 -23 25 -42 9 -68 -9
-14 -3 -66 24 -228 19 -115 33 -211 32 -213 -2 -1 -30 6 -62 16 l-58 20 -15
111 c-8 61 -18 114 -22 117 -13 13 -153 44 -161 36 -4 -4 -15 -51 -24 -104
-13 -76 -20 -97 -32 -97 -21 1 -91 17 -97 23 -3 3 11 89 31 192 29 149 35 193
26 212 -17 37 -13 64 9 70 23 6 22 5 51 151 21 107 21 116 6 142 -10 15 -17
42 -17 60 0 25 4 30 18 27 9 -3 49 -13 89 -22z m-3897 -107 c0 -13 -9 -38 -20
-56 -18 -29 -20 -50 -20 -211 0 -147 3 -181 15 -191 19 -16 19 -41 0 -66 -12
-15 -14 -64 -15 -257 0 -131 -4 -246 -9 -256 -12 -21 -85 -56 -103 -48 -8 2
-42 100 -77 218 -109 365 -99 364 -100 3 l-1 -310 -45 -22 c-25 -12 -48 -22
-50 -22 -3 0 -5 112 -5 249 0 240 -1 249 -20 254 -26 7 -26 37 0 70 18 23 20
40 20 199 0 162 -1 174 -20 186 -14 8 -20 23 -20 48 0 33 3 36 62 64 35 17 70
30 79 30 12 0 35 -62 95 -262 l79 -261 3 298 c1 180 6 303 12 309 12 12 109
54 128 55 6 1 12 -9 12 -21z m4297 -9 c34 -11 66 -26 71 -32 5 -7 32 -95 60
-197 28 -102 66 -239 84 -305 l33 -120 3 283 c2 264 4 283 20 278 95 -31 117
-44 120 -73 2 -19 -4 -35 -18 -48 -18 -17 -20 -30 -20 -155 0 -110 3 -140 15
-150 8 -7 15 -26 15 -42 0 -16 -6 -31 -15 -34 -13 -5 -15 -37 -15 -205 0 -224
3 -216 -76 -180 l-41 19 -84 298 -84 299 -3 -267 c-1 -148 -6 -268 -10 -268
-4 0 -27 6 -52 14 l-45 13 -3 204 c-2 154 -6 207 -16 218 -26 30 -29 59 -7 73
19 12 21 22 21 145 0 115 -3 137 -20 165 -23 38 -27 88 -7 88 7 0 41 -9 74
-21z m-3859 -130 l3 -136 -39 -11 c-76 -23 -82 -17 -82 84 0 35 -4 64 -8 64
-19 0 -108 -34 -114 -44 -11 -15 -10 -266 0 -266 5 0 41 11 81 25 41 13 77 22
82 19 14 -8 11 -80 -3 -91 -7 -6 -38 -18 -68 -28 -104 -33 -100 -25 -100 -191
0 -113 3 -145 13 -142 6 3 36 13 65 22 l52 18 0 74 c0 42 4 83 10 93 9 17 76
51 100 51 16 0 13 -265 -2 -277 -7 -5 -82 -33 -166 -62 -83 -28 -159 -54 -167
-57 -13 -5 -15 20 -15 193 0 187 -1 199 -20 211 -25 16 -25 42 0 75 18 22 20
40 20 156 0 120 -2 131 -20 141 -15 8 -20 21 -20 49 l0 39 113 41 c194 71 252
90 267 88 12 -2 15 -26 18 -138z m4523 53 c116 -56 179 -149 187 -278 2 -41 2
-74 -2 -74 -18 0 -87 42 -100 62 -9 12 -16 41 -16 63 0 22 -6 51 -13 65 -18
36 -76 71 -112 68 l-30 -3 -3 -111 c-3 -111 -3 -111 30 -159 19 -29 49 -58 73
-70 26 -13 43 -30 50 -50 6 -17 33 -64 61 -106 68 -102 76 -136 72 -308 l-3
-143 -29 -25 c-26 -22 -37 -25 -82 -21 -75 6 -172 57 -228 119 -52 58 -76 123
-76 206 0 52 1 54 23 47 75 -23 97 -49 97 -116 0 -58 29 -103 84 -130 38 -18
49 -20 71 -10 l26 12 -3 143 c-3 138 -4 143 -33 190 -21 32 -37 47 -52 47 -25
0 -63 44 -63 72 0 11 -20 42 -44 69 -69 77 -90 128 -94 236 -6 123 4 179 35
210 21 22 31 25 77 21 29 -2 72 -14 97 -26z m-3040 -642 c28 -15 24 -34 -22
-101 -51 -76 -94 -167 -114 -244 -19 -73 -19 -223 -1 -291 21 -80 80 -183 147
-257 44 -49 59 -71 51 -79 -8 -8 -25 0 -61 26 -110 81 -202 215 -235 342 -31
120 -16 301 38 452 15 42 15 42 -7 38 -12 -3 -58 -8 -102 -11 -44 -4 -147 -18
-230 -31 -414 -68 -838 -187 -1285 -361 -209 -82 -271 -95 -330 -71 l-35 15
80 37 c517 242 1146 428 1725 510 260 37 348 43 381 26z m1194 -21 c411 -54
904 -179 1323 -335 172 -65 374 -149 467 -196 l48 -25 -33 -11 c-67 -24 -114
-15 -303 59 -588 230 -1079 354 -1625 413 -38 4 -43 2 -37 -12 30 -77 57 -201
62 -282 9 -164 -35 -304 -135 -423 -64 -76 -155 -149 -176 -141 -20 8 -21 23
-1 30 26 10 133 151 163 216 92 195 63 405 -87 638 -40 62 -43 85 -13 94 27 8
184 -3 347 -25z m-665 -162 c25 -12 56 -23 70 -27 18 -3 33 -21 54 -63 51
-102 46 -287 -7 -287 -25 0 -56 -19 -100 -59 l-29 -26 4 34 c3 35 15 46 60 56
33 6 53 41 61 108 6 40 4 47 -11 47 -34 0 -80 -39 -116 -99 -21 -34 -41 -61
-46 -61 -17 0 -28 35 -35 115 -9 87 -22 81 -25 -10 -2 -62 -12 -97 -28 -103
-6 -2 -29 24 -51 58 -40 64 -82 100 -115 100 -15 0 -17 -5 -12 -31 3 -17 6
-42 6 -56 0 -31 42 -73 74 -73 27 0 46 -25 46 -59 0 -26 -5 -26 -33 0 -32 31
-79 59 -100 59 -62 0 -51 237 16 327 12 16 27 28 34 26 6 -2 30 5 52 17 83 42
150 44 231 7z m-276 -883 c10 -47 16 -87 14 -89 -2 -1 -19 -10 -38 -20 -19
-10 -49 -28 -67 -41 -17 -13 -36 -24 -42 -24 -7 0 -11 25 -11 63 0 82 33 156
81 180 19 9 37 17 40 17 4 0 14 -39 23 -86z m403 66 c56 -34 97 -152 79 -224
l-6 -26 -43 33 c-24 18 -58 39 -75 46 -20 9 -32 20 -32 33 0 30 31 158 38 158
4 0 21 -9 39 -20z m-616 -256 c10 -69 10 -84 -4 -105 -8 -13 -23 -50 -32 -82
-20 -69 -27 -66 -60 26 -20 55 -22 71 -13 103 12 44 40 104 71 151 21 31 22
31 24 10 2 -12 8 -58 14 -103z m844 20 c37 -77 40 -119 15 -186 -29 -77 -45
-90 -54 -41 -3 21 -17 61 -30 90 -20 43 -23 58 -15 85 5 18 9 62 9 98 l1 65
25 -30 c13 -16 35 -53 49 -81z m19 -380 c-18 -53 -57 -126 -78 -143 -21 -18
34 130 62 165 14 18 28 32 29 30 2 -2 -4 -25 -13 -52z m-891 -93 c21 -66 22
-71 5 -50 -25 32 -88 159 -88 179 1 33 60 -58 83 -129z m-494 -125 c57 -61 64
-93 29 -126 -31 -29 -52 -25 -98 16 l-41 37 -24 -23 c-24 -23 -25 -23 -45 -5
-21 19 -20 19 47 87 37 37 70 68 74 68 3 0 29 -24 58 -54z m1921 48 c0 -17
-23 -44 -37 -44 -20 0 -53 -29 -53 -47 0 -19 17 -16 58 12 62 42 112 30 112
-27 0 -37 -24 -72 -65 -98 -38 -24 -85 -27 -85 -6 0 17 13 27 54 41 16 6 35
20 44 32 23 36 -9 41 -51 9 -36 -28 -85 -34 -105 -14 -29 29 -3 96 53 129 28
18 75 26 75 13z m-206 -265 c26 -44 46 -82 44 -83 -28 -24 -49 -24 -119 -1
-40 14 -74 24 -75 22 -2 -1 11 -25 28 -52 29 -46 29 -49 12 -62 -10 -7 -20
-13 -23 -13 -3 0 -28 37 -54 82 -45 76 -47 83 -31 95 24 17 29 17 113 -12 l72
-24 -30 53 c-23 40 -28 55 -19 64 22 22 33 12 82 -69z m-1473 30 c65 -39 82
-60 60 -74 -6 -3 -33 8 -60 25 -46 29 -71 32 -71 10 0 -4 22 -22 50 -39 34
-21 48 -35 44 -46 -8 -20 -8 -20 -70 16 -30 17 -54 28 -54 26 0 -3 -3 -12 -6
-20 -4 -10 12 -25 50 -46 37 -22 53 -37 49 -46 -3 -8 -10 -15 -17 -15 -16 1
-151 85 -150 94 2 16 89 156 97 156 5 0 40 -19 78 -41z m225 -112 c2 -7 -5
-39 -16 -71 -11 -33 -20 -63 -20 -67 0 -4 17 -13 38 -19 46 -15 56 -24 49 -44
-5 -13 -16 -12 -78 9 -40 14 -74 26 -76 28 -2 3 29 102 52 165 6 16 44 16 51
-1z m974 -167 c0 -15 -54 -18 -65 -4 -16 22 -99 -4 -103 -33 -3 -17 -26 -32
-53 -33 -4 0 22 184 31 217 0 1 10 4 23 6 17 3 38 -12 95 -71 39 -41 72 -78
72 -82z m-710 98 c0 -7 -5 -49 -12 -95 -12 -82 -12 -83 -40 -83 -32 0 -31 -11
-8 124 5 33 10 61 10 63 0 2 11 3 25 3 14 0 25 -5 25 -12z m324 -19 c37 -29
33 -42 -9 -35 -19 3 -50 9 -68 12 -40 7 -67 -14 -67 -53 0 -57 71 -85 107 -43
10 11 30 20 45 20 26 0 27 -1 16 -26 -16 -34 -57 -54 -113 -54 -57 0 -80 12
-100 50 -27 52 -12 109 36 136 38 21 122 18 153 -7z"/>
<path d="M3030 3545 l0 -135 65 0 c62 0 65 1 81 31 12 24 15 52 12 114 -4 108
-17 125 -100 125 l-58 0 0 -135z"/>
<path d="M2535 3668 c-44 -25 -44 -30 -45 -344 l0 -301 23 -21 c38 -36 134
-21 151 23 3 9 6 151 6 316 0 286 -1 300 -20 319 -23 23 -82 27 -115 8z"/>
<path d="M4541 3251 c-26 -147 -31 -195 -21 -201 15 -9 120 -33 125 -28 6 5
-54 378 -63 402 -6 13 -19 -46 -41 -173z"/>
<path d="M2031 897 c-8 -10 -4 -20 18 -41 28 -27 51 -28 51 -2 0 12 -41 56
-52 56 -3 0 -11 -6 -17 -13z"/>
<path d="M3386 526 c-9 -35 -5 -39 23 -28 22 8 22 8 3 32 l-19 23 -7 -27z"/>
</g>
</svg>
