<?xml version="1.0" standalone="no"?>
<!DOCTYPE svg PUBLIC "-//W3C//DTD SVG 20010904//EN"
 "http://www.w3.org/TR/2001/REC-SVG-20010904/DTD/svg10.dtd">
<svg version="1.0" xmlns="http://www.w3.org/2000/svg"
 width="400.000000pt" height="400.000000pt" viewBox="0 0 400.000000 400.000000"
 preserveAspectRatio="xMidYMid meet">

<g transform="translate(0.000000,400.000000) scale(0.100000,-0.100000)"
fill="#000000" stroke="none">
<path d="M1836 3653 c-3 -21 -8 -268 -12 -549 l-6 -511 23 -6 c13 -4 38 -7 55
-7 l31 0 7 194 c4 107 4 261 2 343 l-6 148 15 -90 c8 -49 33 -189 55 -310 23
-121 44 -235 47 -252 5 -32 6 -33 58 -33 l53 0 6 298 c3 163 9 410 12 549 l6
252 -35 6 c-19 4 -45 5 -58 3 l-24 -3 -5 -315 c-5 -307 -5 -313 -18 -230 -8
47 -33 189 -56 315 l-42 230 -51 3 -51 3 -6 -38z"/>
<path d="M1513 3661 c-24 -4 -44 -9 -47 -12 -2 -2 29 -211 70 -464 40 -253 73
-472 74 -487 0 -24 -4 -27 -51 -33 -27 -4 -52 -5 -53 -4 -2 2 -38 219 -79 483
-42 263 -78 480 -81 483 -3 3 -28 2 -55 -2 -38 -5 -51 -11 -51 -23 0 -10 33
-227 74 -485 83 -519 83 -519 162 -557 114 -56 243 19 244 142 1 69 -143 968
-155 967 -5 -1 -29 -5 -52 -8z"/>
<path d="M2419 3667 c-1 -1 -40 -246 -88 -544 -56 -349 -83 -544 -76 -546 5
-3 64 -12 131 -22 104 -16 124 -16 149 -4 58 28 60 37 137 527 66 424 71 465
58 489 -25 44 -61 62 -160 78 -52 8 -107 17 -122 20 -16 2 -28 3 -29 2z m199
-152 c5 -5 -125 -846 -133 -853 -2 -2 -27 -1 -54 3 -36 5 -51 11 -51 22 0 24
130 835 135 843 5 7 94 -5 103 -15z"/>
<path d="M928 3542 c-27 -9 -48 -20 -48 -26 0 -6 34 -112 74 -236 l73 -225
-27 -12 c-50 -22 -80 -26 -84 -12 -3 8 -37 114 -77 235 l-72 222 -51 -18 c-36
-12 -51 -22 -50 -34 2 -22 325 -1019 333 -1028 10 -11 112 24 107 37 -9 26
-146 453 -146 458 0 6 100 41 104 36 2 -2 33 -98 70 -213 37 -115 71 -219 76
-232 9 -22 9 -22 59 -6 28 9 51 22 51 29 0 19 -328 1026 -337 1033 -5 4 -29 0
-55 -8z"/>
<path d="M3035 3522 c-26 -9 -47 -23 -62 -43 -18 -23 -293 -873 -293 -906 0
-15 9 -42 19 -59 17 -28 36 -37 143 -73 68 -23 126 -41 130 -41 3 0 14 23 23
51 21 61 26 56 -101 95 -52 16 -94 33 -94 37 0 5 25 87 55 182 l56 173 80 -25
c45 -13 82 -23 84 -21 5 6 35 101 32 103 -1 1 -33 12 -72 25 -38 12 -73 25
-77 29 -6 5 96 347 106 358 2 2 49 -13 106 -32 57 -19 107 -32 111 -28 3 5 13
29 22 55 l16 47 -124 41 c-68 22 -128 40 -132 39 -4 -1 -17 -4 -28 -7z"/>
<path d="M340 3309 c-80 -39 -147 -72 -149 -75 -4 -4 28 -83 40 -97 3 -5 29 3
56 17 l50 25 214 -441 c117 -242 217 -442 221 -444 9 -6 98 38 98 47 0 7 -353
737 -411 850 l-19 38 50 22 c27 12 50 25 50 30 0 13 -43 99 -50 99 -3 0 -70
-32 -150 -71z"/>
<path d="M3457 3258 c-30 -62 -139 -286 -242 -497 -102 -211 -183 -386 -178
-390 14 -12 93 -44 97 -40 2 2 52 102 109 221 83 171 109 217 121 212 9 -3 16
-8 16 -10 0 -3 -27 -112 -60 -244 -33 -132 -60 -242 -60 -245 0 -9 99 -55 103
-47 2 4 30 113 63 243 l58 237 32 -1 c18 -1 40 6 50 14 10 7 62 105 116 217
137 283 136 291 -43 382 -65 33 -120 60 -122 60 -3 0 -30 -51 -60 -112z m163
-68 c22 -11 40 -24 40 -28 0 -18 -155 -332 -164 -332 -6 1 -30 11 -53 23 l-42
22 81 168 c45 92 85 167 90 167 5 0 27 -9 48 -20z"/>
<path d="M1830 2424 c-328 -30 -578 -100 -908 -254 l-113 -53 7 -31 c25 -116
83 -301 130 -416 31 -74 56 -141 57 -148 1 -7 -39 -31 -93 -54 -195 -86 -679
-343 -667 -354 2 -2 61 18 132 43 184 65 609 202 614 198 2 -2 -25 -64 -59
-137 -109 -231 -133 -292 -138 -341 -3 -36 0 -52 13 -67 26 -29 100 -26 172 6
69 30 63 23 -42 -46 -158 -105 -515 -380 -515 -397 0 -2 19 6 43 20 179 104
963 497 990 497 7 0 45 -29 84 -64 135 -121 303 -245 435 -325 l37 -22 140 94
c369 249 612 510 803 865 27 51 59 97 69 103 11 5 187 66 392 135 204 68 354
122 332 119 -22 -2 -83 -10 -135 -15 -109 -13 -350 -52 -459 -75 -41 -8 -75
-14 -77 -12 -2 2 10 41 27 87 17 47 32 90 34 96 3 10 255 57 492 91 67 9 117
21 110 25 -7 4 -137 8 -289 8 l-277 0 14 48 c8 26 15 52 15 58 0 6 -48 34
-107 62 -277 131 -488 198 -743 236 -102 16 -429 28 -520 20z m555 -103 c157
-28 308 -70 453 -127 134 -53 272 -120 272 -132 0 -19 -75 -243 -111 -334
-181 -456 -468 -807 -888 -1088 -52 -35 -99 -63 -106 -63 -17 0 -185 116 -292
202 -107 86 -273 243 -273 259 0 9 171 92 191 92 12 0 68 -61 69 -75 0 -5 32
-39 71 -74 l70 -63 62 7 c173 19 399 136 533 276 190 199 276 408 277 674 1
105 -15 236 -32 263 -8 13 -68 33 -161 54 -50 11 -448 16 -550 6 -142 -13
-329 -58 -540 -128 -151 -50 -220 -83 -220 -105 0 -7 15 -57 34 -112 l35 -98
-78 -80 c-43 -44 -83 -90 -90 -102 -6 -13 -15 -23 -20 -23 -15 0 -112 242
-154 385 -45 150 -54 129 75 189 206 97 406 161 609 195 176 29 180 29 424 26
170 -2 247 -8 340 -24z m251 -288 c-28 -114 -23 -107 -79 -117 -36 -7 -37 -6
-31 18 5 23 4 24 -21 17 -26 -6 -31 -17 -67 -140 -22 -73 -37 -136 -34 -139
15 -14 53 19 64 55 10 34 18 42 51 51 21 7 43 12 49 12 6 0 1 -36 -12 -87
l-22 -88 -114 -49 c-119 -50 -156 -58 -171 -35 -12 19 -6 45 57 244 54 171 70
204 115 237 24 18 135 45 193 47 26 1 28 -1 22 -26z m-286 -16 c0 -2 -7 -27
-15 -55 -12 -40 -20 -52 -35 -52 -14 0 -43 -35 -99 -118 l-79 -119 39 -88 c21
-48 39 -91 39 -96 0 -8 -130 -72 -135 -67 -2 2 -21 40 -44 86 -23 45 -43 82
-45 82 -2 0 -24 -57 -50 -127 l-46 -128 -103 -47 c-56 -26 -103 -43 -105 -39
-2 5 46 131 106 280 92 230 106 271 90 271 -23 0 -23 -3 8 68 l26 60 100 21
c56 12 103 19 106 16 3 -3 -13 -52 -35 -110 -22 -58 -39 -105 -38 -105 1 0 42
53 90 118 49 64 89 119 91 121 2 2 29 9 61 16 69 15 73 16 73 12z m-566 -137
c20 -7 26 -16 26 -41 0 -27 -158 -427 -207 -524 -54 -107 -146 -176 -405 -306
-151 -76 -207 -99 -238 -99 -46 0 -66 25 -55 68 9 38 102 245 211 470 144 295
180 325 514 411 135 35 122 34 154 21z"/>
<path d="M2723 2117 c35 -143 34 -357 -3 -492 -95 -351 -373 -625 -727 -716
-42 -10 -87 -19 -100 -19 -43 0 -39 -4 157 -167 13 -10 29 -3 100 51 385 289
667 674 824 1124 20 57 36 110 36 117 0 12 -117 63 -254 111 -37 14 -38 13
-33 -9z"/>
<path d="M1508 1692 c-26 -9 -51 -21 -56 -27 -11 -11 -195 -416 -206 -452 -7
-21 -5 -21 63 10 46 20 73 38 77 51 4 12 46 111 95 222 49 110 89 204 89 207
0 9 -8 8 -62 -11z"/>
</g>
</svg>
