<?xml version="1.0" standalone="no"?>
<!DOCTYPE svg PUBLIC "-//W3C//DTD SVG 20010904//EN"
 "http://www.w3.org/TR/2001/REC-SVG-20010904/DTD/svg10.dtd">
<svg version="1.0" xmlns="http://www.w3.org/2000/svg"
 width="400.000000pt" height="400.000000pt" viewBox="0 0 400.000000 400.000000"
 preserveAspectRatio="xMidYMid meet">

<g transform="translate(0.000000,400.000000) scale(0.100000,-0.100000)"
fill="#000000" stroke="none">
<path d="M1950 3237 c-25 -12 -25 -15 -28 -145 l-3 -132 36 0 35 0 0 56 c0 52
1 55 23 52 19 -3 22 -10 25 -55 l3 -53 35 0 34 0 0 139 0 138 -46 7 c-66 9
-86 7 -114 -7z m85 -83 c0 -33 -4 -40 -22 -42 -21 -3 -23 1 -23 36 0 38 12 54
35 48 6 -2 10 -20 10 -42z"/>
<path d="M1730 3095 l0 -145 80 0 80 0 0 50 c0 47 -2 50 -25 50 -17 0 -29 -8
-37 -25 -21 -47 -28 -25 -28 95 l0 120 -35 0 -35 0 0 -145z"/>
<path d="M2140 3095 l0 -145 35 0 35 0 0 121 c0 119 0 120 23 117 21 -3 22 -7
25 -120 l3 -118 34 0 35 0 0 125 c0 159 -4 165 -115 165 l-75 0 0 -145z"/>
<path d="M1548 3223 l-38 -4 0 -146 0 -145 23 6 c12 3 27 6 34 6 8 0 13 21 15
58 3 49 6 57 23 57 17 0 20 -8 23 -57 3 -60 7 -63 49 -52 22 6 22 10 22 128
-1 66 -5 129 -10 139 -10 17 -45 20 -141 10z m77 -83 c0 -29 -4 -36 -22 -38
-20 -3 -23 1 -23 31 0 38 7 49 30 45 10 -2 15 -15 15 -38z"/>
<path d="M2360 3085 l0 -145 28 0 c15 0 50 -3 78 -6 76 -9 84 3 84 135 0 74
-4 113 -13 125 -14 18 -78 34 -144 35 l-33 1 0 -145z m115 -10 c0 -83 -1 -90
-20 -90 -18 0 -20 8 -23 93 -3 92 -2 93 20 90 22 -3 23 -7 23 -93z"/>
<path d="M1373 3201 c-70 -12 -73 -18 -73 -156 0 -140 -2 -138 82 -128 95 10
98 15 98 151 0 149 -1 150 -107 133z m37 -141 c0 -83 -1 -90 -20 -90 -19 0
-20 7 -20 90 0 83 1 90 20 90 19 0 20 -7 20 -90z"/>
<path d="M2593 3193 c-20 -8 -18 -246 2 -263 23 -19 145 -26 156 -9 14 22 11
222 -3 242 -17 23 -123 43 -155 30z m97 -143 c0 -83 -1 -90 -20 -90 -19 0 -20
7 -20 90 0 83 1 90 20 90 19 0 20 -7 20 -90z"/>
<path d="M1645 2860 c-66 -4 -136 -11 -155 -15 -50 -10 -104 -48 -131 -92
l-24 -38 -5 -464 -5 -464 -22 -15 -23 -14 0 536 0 536 -22 -5 c-13 -2 -81 -14
-153 -25 -148 -24 -200 -35 -445 -97 -199 -50 -251 -72 -294 -126 l-31 -39 -3
-524 c-1 -288 -1 -524 0 -524 2 0 64 20 138 44 l135 44 5 421 c4 360 7 423 20
431 13 8 15 -31 18 -325 1 -184 6 -335 10 -335 4 0 70 15 147 34 l140 33 5
334 c3 184 7 335 8 337 19 21 22 -41 22 -418 0 -239 4 -420 9 -420 5 0 53 9
106 20 54 11 100 19 102 17 1 -2 -16 -19 -40 -37 -112 -90 -250 -243 -315
-351 -33 -55 -27 -55 30 -4 75 67 246 179 351 229 96 46 250 100 266 94 5 -1
-2 -29 -15 -62 -14 -32 -24 -60 -22 -61 2 -2 35 7 73 20 167 56 404 60 621 10
100 -23 101 -24 80 -80 -14 -36 -22 -45 -35 -40 -114 47 -255 75 -365 74 l-71
0 110 -38 c131 -44 208 -79 270 -121 40 -27 45 -35 45 -68 0 -60 28 -161 62
-224 39 -73 147 -177 220 -211 192 -91 400 -48 551 112 157 167 199 402 106
597 -16 34 -49 84 -74 112 l-45 50 -2 538 -3 539 -110 17 c-60 9 -127 19 -147
23 l-38 5 0 -392 -1 -393 -24 -40 -25 -40 0 213 0 212 -22 1 c-13 0 -86 6
-163 12 l-140 12 -3 108 -3 107 30 0 c28 0 30 -3 41 -54 13 -63 9 -61 158 -72
l102 -7 0 170 0 170 -162 14 c-90 8 -209 14 -265 14 -112 0 -136 -10 -180 -74
-31 -46 -35 -109 -31 -509 l3 -352 -27 0 -28 0 0 470 0 470 -97 -2 c-54 0
-152 -4 -218 -8z m285 -480 c0 -402 -2 -460 -15 -460 -13 0 -15 56 -15 440 l0
440 -107 0 c-154 -1 -295 -15 -331 -34 -66 -34 -66 -34 -72 -515 -4 -335 -8
-435 -17 -439 -17 -5 -19 823 -2 883 14 51 65 100 118 115 36 10 222 23 394
29 l47 1 0 -460z m535 437 l140 -12 3 -132 3 -133 -44 0 c-24 0 -65 3 -90 6
l-46 7 -11 54 -12 54 -61 -3 -62 -3 -3 -332 c-3 -369 -4 -363 64 -363 l34 0 0
135 c0 128 -1 135 -20 135 -18 0 -20 7 -20 76 l0 76 48 -6 c26 -3 86 -8 135
-12 l87 -6 0 -195 c0 -151 -3 -194 -12 -191 -10 4 -14 51 -16 181 l-2 176 -58
6 c-31 3 -78 8 -104 11 l-48 5 0 -45 c0 -36 4 -46 20 -51 19 -6 20 -15 20
-166 l0 -159 -51 0 c-43 0 -55 5 -80 29 l-29 29 0 329 c0 393 -6 373 105 373
80 0 77 2 90 -71 7 -40 27 -49 101 -49 l34 0 0 104 0 103 -62 7 c-35 3 -134 9
-220 12 l-157 7 -30 -31 -31 -30 0 -407 c0 -321 -3 -406 -12 -402 -10 3 -13
94 -13 410 0 396 0 406 21 434 11 15 32 34 45 40 30 16 156 15 344 0z m385
-47 c41 -6 85 -13 98 -16 l22 -4 0 -500 c0 -438 -2 -500 -15 -500 -13 0 -15
61 -15 489 l0 489 -32 6 c-18 3 -57 8 -85 12 l-53 7 0 -412 c0 -359 -2 -411
-15 -411 -13 0 -15 55 -15 431 0 405 1 430 18 425 9 -2 51 -10 92 -16z m-1602
-502 l-3 -513 -90 -17 c-49 -9 -100 -17 -112 -18 l-23 0 0 421 c0 380 -2 421
-16 415 -9 -3 -21 -6 -28 -6 -7 0 -21 -6 -32 -14 -18 -14 -19 -32 -24 -341
l-5 -328 -112 -27 -113 -27 0 333 0 334 -22 0 c-13 0 -38 -9 -55 -20 l-33 -20
0 -414 0 -415 -95 -31 c-52 -16 -100 -30 -105 -30 -15 0 -13 955 1 983 32 63
87 87 342 153 90 23 110 25 117 14 7 -12 12 -12 27 1 10 9 27 19 38 24 31 11
266 53 308 54 l37 1 -2 -512z m477 257 l0 -170 -75 -7 c-41 -3 -78 -4 -82 -2
-12 8 -10 257 2 291 12 33 38 50 85 56 74 10 70 21 70 -168z m3 -467 c-3 -155
-5 -173 -20 -176 -17 -3 -18 10 -18 157 0 160 0 161 -22 161 -13 0 -33 -3 -45
-6 -22 -6 -23 -10 -25 -177 -3 -154 -5 -172 -20 -175 -17 -3 -18 11 -18 187 0
218 -11 197 108 200 l62 1 -2 -172z m622 31 c0 -76 -3 -100 -12 -97 -9 3 -14
35 -16 101 -2 82 0 97 13 97 12 0 15 -17 15 -101z m-692 -76 c-2 -106 -6 -147
-15 -151 -10 -3 -13 31 -13 147 0 129 2 151 15 151 13 0 15 -21 13 -147z
m1052 -58 c0 -20 6 -38 13 -40 6 -2 26 -9 42 -16 l30 -11 -39 -15 c-37 -16
-38 -17 -32 -57 l7 -41 -32 31 c-31 31 -33 31 -65 18 -37 -16 -40 -11 -19 26
19 33 19 34 -11 69 -28 34 -26 36 23 22 30 -9 34 -7 50 20 23 39 33 37 33 -6z
m-428 -112 c6 -7 20 -13 32 -14 21 0 21 0 -1 -16 -15 -10 -23 -26 -23 -46 0
-29 0 -30 -20 -12 -17 15 -24 16 -46 6 -25 -11 -26 -11 -19 20 5 22 2 36 -12
51 -18 20 -18 20 13 14 27 -6 32 -3 44 21 12 25 14 26 18 8 2 -11 9 -26 14
-32z m244 -68 c158 -25 269 -67 362 -135 l43 -31 -29 -39 c-16 -22 -41 -49
-56 -61 l-26 -21 -63 59 c-35 33 -94 74 -135 94 l-72 36 35 6 c20 3 48 2 61
-4 47 -17 49 -8 4 15 -25 13 -90 38 -145 56 -55 17 -104 33 -110 35 -27 9 50
3 131 -10z m-306 -45 c169 -21 339 -78 447 -151 52 -34 123 -99 123 -110 0 -4
-26 -17 -57 -29 -79 -30 -203 -24 -323 15 -47 15 -88 30 -92 34 -4 4 5 24 19
45 26 35 31 38 68 33 22 -2 68 -16 103 -30 56 -22 61 -23 46 -6 -79 87 -331
153 -638 166 -124 5 -152 9 -121 15 126 27 292 34 425 18z m-537 -40 c20 -1
21 -2 5 -14 -10 -7 -18 -21 -18 -31 0 -14 -3 -15 -14 -6 -7 6 -21 9 -30 5 -12
-5 -15 -2 -10 10 3 9 1 23 -6 31 -10 12 -9 15 8 15 11 0 23 8 28 18 7 15 8 14
11 -5 3 -16 12 -23 26 -23z m1317 -161 c22 -28 40 -56 40 -63 0 -13 -44 -57
-94 -95 l-29 -21 -38 56 -38 57 23 18 c12 10 35 36 50 58 16 23 33 41 37 41 5
0 27 -23 49 -51z m-605 -104 c158 -53 279 -54 379 -3 l40 20 21 -26 c11 -14
29 -39 38 -56 l18 -31 -83 -38 c-151 -71 -290 -107 -454 -118 l-93 -6 -7 28
c-10 42 2 186 20 229 12 30 20 37 33 31 10 -3 50 -17 88 -30z m685 -74 c16
-85 15 -89 -27 -96 -21 -4 -50 -10 -65 -15 -25 -8 -28 -6 -41 35 l-15 43 61
50 c34 27 65 47 69 43 4 -4 12 -31 18 -60z m-161 -88 c13 -35 13 -38 -10 -52
-70 -43 -139 -131 -194 -245 l-56 -116 -42 6 c-147 22 -261 105 -331 241 -9
18 -16 34 -16 38 0 3 33 5 74 5 138 0 355 55 486 124 36 19 67 34 70 35 4 1
12 -16 19 -36z m157 -80 c-7 -37 -62 -160 -76 -168 -4 -3 -10 30 -14 73 -4 42
-8 86 -9 96 -2 21 25 33 77 35 27 1 28 0 22 -36z m-128 -104 c1 -61 -2 -103
-11 -119 -16 -32 -127 -88 -190 -97 l-48 -6 36 79 c20 43 52 103 73 133 37 55
107 114 126 108 7 -2 12 -42 14 -98z"/>
<path d="M1048 2725 c-70 -12 -142 -31 -159 -42 -18 -10 -43 -38 -56 -62 l-23
-44 0 51 0 50 -127 -33 c-164 -43 -183 -49 -220 -69 -65 -33 -63 -14 -63 -523
0 -255 3 -463 6 -463 3 0 37 9 75 21 l69 21 0 402 c0 337 2 405 15 422 17 25
65 49 118 58 l37 7 0 -336 c0 -316 1 -336 18 -331 9 3 40 10 67 16 28 6 58 13
67 16 16 5 17 33 20 324 3 292 5 320 21 338 20 22 109 48 127 37 7 -4 10 -142
10 -420 0 -327 3 -414 13 -410 6 2 45 9 85 15 l72 12 0 484 0 484 -22 -1 c-13
0 -80 -11 -150 -24z"/>
<path d="M1612 2648 c-8 -8 -12 -54 -12 -140 l0 -128 45 0 45 0 0 140 0 140
-33 0 c-18 0 -38 -5 -45 -12z m48 -128 c0 -91 -3 -110 -15 -110 -12 0 -15 18
-15 103 0 57 3 107 7 110 18 19 23 -2 23 -103z"/>
<path d="M2300 1364 c-6 -14 -10 -54 -10 -90 l0 -64 54 0 c75 0 217 26 309 56
43 14 77 28 75 30 -3 2 -31 -1 -64 -6 -32 -6 -93 -10 -134 -9 l-75 0 78 24
c43 12 80 25 83 27 2 3 -35 8 -84 11 -48 3 -116 15 -150 26 -34 12 -64 21 -67
21 -3 0 -10 -12 -15 -26z"/>
<path d="M2718 1175 c-63 -33 -204 -73 -286 -81 -105 -10 -107 -14 -32 -87 68
-66 130 -97 195 -97 28 0 35 7 70 68 21 37 53 88 72 115 18 26 31 47 29 47 -2
0 -30 -18 -62 -39 -61 -41 -152 -81 -182 -81 -9 0 19 21 63 46 76 43 185 119
185 129 0 7 1 7 -52 -20z"/>
<path d="M2833 1062 c-37 -57 -50 -81 -68 -132 l-14 -39 27 10 c64 24 110 59
116 86 10 56 17 123 13 123 -3 0 -15 -15 -27 -32 l-22 -33 6 33 c3 17 4 32 3
32 -1 0 -16 -21 -34 -48z"/>
<path d="M3134 2716 c-17 -8 -42 -29 -55 -47 l-24 -34 -3 -425 -3 -426 24 -44
c43 -82 52 -86 580 -237 16 -5 17 7 15 187 l-3 193 -95 28 c-52 16 -98 29
-102 29 -4 0 -13 -27 -20 -60 -11 -56 -13 -59 -37 -54 -14 4 -36 13 -48 20
l-23 14 0 301 0 300 23 -7 c12 -3 23 -7 25 -9 1 -1 7 -38 13 -83 7 -44 15 -85
18 -90 9 -13 235 -81 244 -72 4 3 6 96 5 205 l-3 199 -130 42 c-256 84 -337
98 -401 70z m176 -41 c52 -14 146 -41 208 -61 l112 -35 0 -170 c0 -158 -1
-170 -17 -165 -10 3 -49 15 -88 27 -38 12 -71 22 -73 24 -2 2 -10 42 -17 90
-8 48 -16 89 -17 90 -14 9 -91 25 -98 20 -6 -4 -10 -130 -10 -330 0 -370 -5
-350 89 -374 54 -14 71 -10 71 17 0 9 5 33 10 53 l10 36 70 -20 70 -21 0 -154
c0 -142 -1 -154 -17 -149 -10 2 -108 30 -218 62 -110 31 -216 67 -236 80 -73
47 -74 52 -77 490 -2 337 -1 396 13 432 17 43 45 68 86 76 13 2 26 5 29 6 3 0
48 -10 100 -24z"/>
<path d="M3164 2656 c-20 -9 -35 -25 -43 -46 -7 -23 -11 -155 -11 -414 0 -353
2 -384 19 -423 14 -29 31 -48 58 -61 30 -15 388 -122 408 -122 3 0 5 56 5 124
l0 124 -42 10 c-49 13 -54 9 -64 -56 -3 -23 -10 -44 -13 -47 -4 -2 -39 5 -77
16 -47 14 -78 30 -96 50 l-28 29 0 330 0 330 24 15 c23 15 30 15 84 0 l59 -17
14 -91 14 -90 50 -18 c79 -28 75 -35 75 121 l0 139 -96 31 c-105 34 -279 80
-298 80 -6 -1 -25 -7 -42 -14z"/>
</g>
</svg>
